PathFileType	4	(X/Y/Z)	/Users/rkoike/Documents/python/sports2d/worker-zone-detection_Sports2D/worker-zone-detection_Sports2D_px_person00.trc
DataRate	CameraRate	NumFrames	NumMarkers	Units	OrigDataRate	OrigDataStartFrame	OrigNumFrames
60	60	9	22	m	60	2274	4549
Frame#	Time	Hip			RHip			RKnee			RAnkle			RBigToe			RSmallToe			RHeel			LHip			LKnee			LAnkle			LBigToe			LSmallToe			LHeel			Neck			Head			Nose			RShoulder			RElbow			RWrist			LShoulder			LElbow			LWrist			
		X1	Y1	Z1	X2	Y2	Z2	X3	Y3	Z3	X4	Y4	Z4	X5	Y5	Z5	X6	Y6	Z6	X7	Y7	Z7	X8	Y8	Z8	X9	Y9	Z9	X10	Y10	Z10	X11	Y11	Z11	X12	Y12	Z12	X13	Y13	Z13	X14	Y14	Z14	X15	Y15	Z15	X16	Y16	Z16	X17	Y17	Z17	X18	Y18	Z18	X19	Y19	Z19	X20	Y20	Z20	X21	Y21	Z21	X22	Y22	Z22
2274	37.9	484.97407415644255	123.74827439389206	0.0	495.87352210480157	126.54662395692893	0.0	507.7275197331922	157.8754587657723	0.0	521.8235326064839	257.8094895008188	0.0	532.7545513462967	304.863675762224	0.0	532.7548436564607	293.59549077769276	0.0	515.7543851207943	279.6977736753504	0.0	526.5475956307328	121.15878805173686	0.0	504.61552611887276	166.22970627955505	0.0	524.2634364962498	260.41375288109606	0.0	543.9884828009676	299.3122964378422	0.0	544.1620918040884	301.9070512260436	0.0	546.4621415056124	285.4047590256808	0.0	465.63861629358837	34.81038820599046	0.0	527.7923735783427	3.9147363126280657	0.0	552.7404644519039	90.16791885617674	0.0	502.356634867577	48.18083144278533	0.0	488.0351736225191	81.33726451673468	0.0	516.0281818598763	101.09655052148754	0.0	515.7740108994993	45.233191760542795	0.0	509.93508342729695	56.336499138696375	0.0	498.2960050094082	89.79492242941033	0.0
2275	37.916666666666664	490.0226783918966	126.00112357593665	0.0	502.3836096028891	128.07245805792894	0.0	509.7667049798391	159.90237501449906	0.0	521.6438487488622	259.67635686243165	0.0	532.6075601135681	305.9580129330454	0.0	532.607863934493	294.7443354081152	0.0	517.1200442207108	281.58879531268514	0.0	533.7057721180358	122.65677433562085	0.0	507.4388847511648	167.5095847390303	0.0	524.8590406174665	263.01918201717416	0.0	545.2269444659935	300.4155391450843	0.0	545.3501037779503	303.76256913067084	0.0	547.0359091063439	287.2638821690862	0.0	472.85778860894	35.77220961454012	0.0	530.3760376655962	5.73521423972629	0.0	557.4278267208585	91.0776634979183	0.0	510.10481570529316	49.95061029582104	0.0	493.75580750975814	83.07670511648932	0.0	518.7877229691823	102.0388853472898	0.0	522.865307907372	47.75042227108322	0.0	515.6662311803584	58.835928223952145	0.0	505.6088482856538	92.23175675399133	0.0
2276	37.93333333333333	494.85805619751073	128.06656665853302	0.0	508.5963308044673	129.46132950474367	0.0	511.7449212639949	161.67556572211825	0.0	521.5400826332373	261.30721175797754	0.0	532.5418109222373	306.89567794995236	0.0	532.542037517528	295.74742597816487	0.0	518.5099538600161	283.28270691945346	0.0	540.5005000991746	124.00403489002593	0.0	510.18647297575006	168.59562346625717	0.0	525.5167379195121	265.3619015414382	0.0	546.4374171047295	301.36097574707713	0.0	546.5065197230703	305.4243967322136	0.0	547.6663292427205	288.90474885775257	0.0	479.6905745126476	36.66176423600279	0.0	532.8012758071815	7.444502632103826	0.0	561.8233241068299	91.93695243116986	0.0	517.3631793133595	51.639771298214335	0.0	499.1702731345946	84.7635091482716	0.0	521.4295732252962	102.93682064085128	0.0	529.5746518939017	50.15935856475043	0.0	521.1386663634654	61.22917466809496	0.0	512.5916608139544	94.53655084475112	0.0
2277	37.95	498.99275828487237	129.82249741337085	0.0	513.9051877745894	130.6403799794034	0.0	513.4387032267431	163.18234459421348	0.0	521.4577003489599	262.6922362316574	0.0	532.4865928093067	307.6924450695776	0.0	532.4867263855425	296.599265327055	0.0	519.7042639566689	284.72424733282344	0.0	546.3023537871683	125.14841698142028	0.0	512.5396091180351	169.52029790447705	0.0	526.0869420055407	267.35798257255897	0.0	547.4721593524783	302.1643458493061	0.0	547.50030193712	306.8383360225948	0.0	548.2087844826053	290.29743128120094	0.0	485.5261092412835	37.42298492101506	0.0	534.8793326526795	8.898875490891866	0.0	565.5876155276433	92.67111307679151	0.0	523.5606755518561	53.080896145133224	0.0	503.79173504152106	86.20608511091602	0.0	523.6854040426292	103.69890717865249	0.0	535.3093141609031	52.21830837629119	0.0	525.8164604764498	63.27474688026117	0.0	518.551626934751	96.49848436657689	0.0
2278	37.96666666666667	502.0964938047539	131.15255141967253	0.0	517.8921681316017	131.53434006398265	0.0	514.7063630519473	164.3437381654916	0.0	521.3858676576548	263.75964253519135	0.0	532.4286058096766	308.31157779722724	0.0	532.4286649458118	297.2558457455306	0.0	520.5871157491481	285.8272023834656	0.0	550.6640603751592	126.0206833124768	0.0	514.2993208098347	170.24323954165894	0.0	526.5019358679493	268.88522212277115	0.0	548.2429276368242	302.78857202430646	0.0	548.246568391077	307.9199698975658	0.0	548.6003040536064	291.3656851392135	0.0	489.9189016176892	38.00229794967995	0.0	536.4546827421309	9.991853839081237	0.0	568.4405083412959	93.22444583530324	0.0	528.2422431538504	54.16100497505552	0.0	507.26804553930896	87.28429856073876	0.0	525.3760374681412	104.2666964287064	0.0	539.630977893627	53.76347556590699	0.0	529.3302097022548	64.80959155014006	0.0	523.0201837975955	97.96971797865491	0.0
2279	37.983333333333334	504.06763291943025	132.00921385173706	0.0	520.4264435859106	132.11114906399516	0.0	515.5078180102329	165.10889601655813	0.0	521.3306179598843	264.46289731923747	0.0	532.3774416249984	308.7236487994898	0.0	532.3774540759644	297.68851125321487	0.0	521.1351185149249	286.5467059637367	0.0	553.4410951685074	126.58727115379814	0.0	515.4105426826679	170.72774212290355	0.0	526.7530112018524	269.88109268796927	0.0	548.7273749281965	303.20400223040747	0.0	548.7199189354073	308.6254447190454	0.0	548.8349506397656	292.06543137461665	0.0	492.720458634264	38.3768832688308	0.0	537.4676832129926	10.688274035019973	0.0	570.2746866734893	93.57787449375496	0.0	531.2421475148067	54.84607864623443	0.0	509.48337582727925	87.96502753894747	0.0	526.4479455939081	104.62459429301232	0.0	542.3905076392965	54.74460642583392	0.0	531.5640248433162	65.78391983647747	0.0	525.8553933798365	98.9042869636342	0.0
2280	38.0	505.06061375871553	132.44929074962369	0.0	521.7047077893753	132.40819774725077	0.0	515.9089960854322	165.51375117141993	0.0	521.2959567221008	264.83502530528	0.0	532.3416488293173	308.94448319855434	0.0	532.3416386490375	297.91751199987266	0.0	521.4022307325688	286.922560035328	0.0	554.8450653541761	126.88163531610665	0.0	515.9658399706841	170.98958312144595	0.0	526.8706493413492	270.4009935255238	0.0	548.967898488907	303.42661639878463	0.0	548.9578735253482	308.9938942161439	0.0	548.9433298738078	292.4329850459879	0.0	494.14009630812524	38.57022798565928	0.0	537.9866487255905	11.040823582438737	0.0	571.2141581024574	93.75733377666978	0.0	532.772166991255	55.19062911056938	0.0	510.60480148824774	88.3051374316977	0.0	526.9867379582082	104.80310843221409	0.0	543.7910853474738	55.23874911648892	0.0	532.6909521720945	66.27446277474154	0.0	527.2819624908697	99.37538745380378	0.0
2281	38.016666666666666	505.38188212080604	132.59865844254114	0.0	522.1195858934755	132.50961092351565	0.0	516.0366929158492	165.66063433606362	0.0	521.2791467666542	264.97005563905304	0.0	532.3218590189229	309.02678904271215	0.0	532.3218422432828	298.00065037535643	0.0	521.4813183718521	287.05514168318524	0.0	555.30341150188	126.98419944791246	0.0	516.1418197790548	171.08885883772598	0.0	526.9014631420715	270.5841330852921	0.0	549.0428316131288	303.50956979985295	0.0	549.0344511209812	309.12380367377466	0.0	548.9703427394439	292.56423536176595	0.0	494.6062272764201	38.63658780889449	0.0	538.1616479747366	11.156297471487681	0.0	571.5308038817383	93.81655632301934	0.0	533.2825841070032	55.30164406716903	0.0	510.97207727059765	88.41287039775723	0.0	527.1600817381917	104.85940580240869	0.0	544.2527800712061	55.39853219046086	0.0	533.0568856765858	66.4329395151656	0.0	527.7421241238194	99.52805455827402	0.0
2282	38.03333333333333	505.3391815174225	132.58771835652234	0.0	522.0661139714133	132.50290203552677	0.0	516.0170409526885	165.6613940744783	0.0	521.2742415296793	264.9707776504724	0.0	532.3140149747505	309.0297022249812	0.0	532.3140000029568	298.00114404336165	0.0	521.4614496512305	287.05152676027683	0.0	555.2477310757962	126.97991425420322	0.0	516.1137336609518	171.09424066316436	0.0	526.8881215035249	270.5788421347569	0.0	549.0291902028675	303.51248843542845	0.0	549.0237497847191	309.1201911097222	0.0	548.9564787971708	292.5625251707243	0.0	494.5529771843237	38.632622784914076	0.0	538.1474389115126	11.142748858640525	0.0	571.5049085264242	93.81016546002724	0.0	533.23438643347	55.28630101575048	0.0	510.9289400238848	88.39560917018845	0.0	527.1357959499244	104.85006167694013	0.0	544.2023274223643	55.377178236256746	0.0	533.0099431351875	66.41157843072618	0.0	527.6791898894688	99.50807904685684	0.0
